<svg xmlns="http://www.w3.org/2000/svg" viewBox="0 0 2361 3333" shape-rendering="geometricPrecision" text-rendering="geometricPrecision" image-rendering="optimizeQuality" fill-rule="evenodd" clip-rule="evenodd"><path d="M1181 0c257 0 465 208 465 465s-208 465-465 465-465-208-465-465S924 0 1181 0zM688 2111l369 374-272 272 218 224 74 76c127 168-64 368-229 229l-484-494c-73-101-95-212-20-338l344-344zm985 0l-369 374 272 272-218 224-74 76c-127 168 64 368 229 229l484-494c73-101 95-212 20-338l-344-344zm613-123c-76 55-172 29-237-38l-371-389v354H682v-353l-370 388c-64 67-161 93-237 38s-105-172-38-237l487-473c79-77 232-259 335-259h652c96 0 245 181 326 259l487 473c67 65 37 182-38 237z"/></svg>