<?xml version="1.0" encoding="utf-8"?>
<!-- Generator: Adobe Illustrator 17.0.0, SVG Export Plug-In . SVG Version: 6.00 Build 0)  -->
<!DOCTYPE svg PUBLIC "-//W3C//DTD SVG 1.1//EN" "http://www.w3.org/Graphics/SVG/1.1/DTD/svg11.dtd">
<svg version="1.1" id="Layer_1" xmlns="http://www.w3.org/2000/svg" xmlns:xlink="http://www.w3.org/1999/xlink" x="0px" y="0px"
	 width="730px" height="360px" viewBox="0 0 730 360" enable-background="new 0 0 730 360" xml:space="preserve">
<g>
	<g>
		<g>
			<g>
				<path fill="#56BA22" d="M273.315,213.525H48.698c-9.714,0-17.588-7.875-17.588-17.588v163.128L49.639,360h111.368h111.978
					c0,0,14.248,0,17.919,0V195.937C290.903,205.65,283.029,213.525,273.315,213.525z"/>
				<path fill="#94CE28" d="M161.007,173.098H49.639c-6.617,0-12.922,1.493-18.529,4.41v18.429c0,9.713,7.874,17.588,17.588,17.588
					h224.618c9.713,0,17.588-7.875,17.588-17.588v-18.429c-4.673-2.916-11.301-4.41-17.919-4.41H161.007z"/>
			</g>
			<g>
				<path fill="#FFFFFF" d="M83.305,218.889h-20.92c-3.651,0-6.979,3.382-6.979,7.035v10.457c0,3.655,3.328,6.806,6.979,6.806h20.92
					c3.654,0,6.678-3.15,6.678-6.806v-10.457C89.984,222.271,86.959,218.889,83.305,218.889z M83.442,236.381
					c0,0.29,0.153,0.264-0.137,0.264H62.386c-0.288,0-0.437,0.026-0.437-0.264v-10.458c0-0.29,0.15-0.492,0.437-0.492h20.919
					c0.29,0,0.137,0.203,0.137,0.492V236.381z"/>
			</g>
			<g>
				<g>
					<path fill="#FFFFFF" d="M232.964,225.924v10.457c0,3.655,2.89,6.806,6.544,6.806h20.92c3.651,0,6.178-3.15,6.178-6.806v-10.457
						c0-3.652-2.527-7.035-6.178-7.035h-20.92C235.854,218.889,232.964,222.271,232.964,225.924z M238.571,225.923
						c0-0.29,0.648-0.492,0.937-0.492h20.919c0.288,0,0.572,0.203,0.572,0.492v10.458c0,0.29-0.284,0.264-0.572,0.264h-20.919
						c-0.29,0-0.937,0.026-0.937-0.264V225.923z"/>
				</g>
				<g>
					<polygon fill="#127045" points="62.883,251.597 62.883,359.065 82.508,359.065 82.508,251.597 82.508,234.776 62.883,234.776 
											"/>
					<polygon fill="#127045" points="240.44,234.776 240.44,251.597 240.44,359.065 260.064,359.065 260.064,251.597 
						260.064,234.776 					"/>
				</g>
				<path fill="#D13D3D" d="M259.732,211.413c0-54.202-44.524-98.551-98.726-98.551s-97.925,44.349-97.925,98.551h-0.198V227.3
					h19.625v-15.887h0.105c0-42.987,35.406-78.326,78.393-78.326s79.194,35.339,79.194,78.326h0.24V227.3h19.625v-15.887H259.732z"
					/>
			</g>
			<g>
				<g>
					<path fill="#127045" d="M161.006,173.098h-9.345v133.114c0,5.228,4.673,9.466,9.345,9.466c5.607,0,10.28-4.239,10.28-9.466
						V173.098H161.006z"/>
					<g>
						<g>
							<path fill="#FFFFFF" d="M170.45,229.169h-17.781c-3.651,0-6.615,3.422-6.615,7.074v20.917c0,3.655,2.964,6.586,6.615,6.586
								h17.781c3.654,0,6.443-2.93,6.443-6.586v-20.917C176.893,232.59,174.104,229.169,170.45,229.169z M171.286,257.16
								c0,0.29-0.546,0.979-0.836,0.979H152.67c-0.288,0-0.074-0.689-0.074-0.979v-20.918c0-0.29-0.214-0.532,0.074-0.532h17.781
								c0.29,0,0.836,0.242,0.836,0.532V257.16z"/>
						</g>
						<path fill="#FFFFFF" d="M163.81,234.255c0-1.261-1.022-2.283-2.283-2.283h-0.106c-1.261,0-2.283,1.022-2.283,2.283v11.32
							c0,1.261,1.022,2.283,2.283,2.283h0.106c1.261,0,2.283-1.022,2.283-2.283V234.255z"/>
					</g>
				</g>
			</g>
			<g>
				<g>
					<path fill="#1B9B05" d="M0.769,267.933c0,59.246,8.936,75.921,30.341,91.308V177.508
						C9.705,192.896,0.769,208.243,0.769,267.933z"/>
				</g>
			</g>
			<g>
				<g>
					<path fill="#1B9B05" d="M321.244,267.933c0,59.246-8.936,75.921-30.341,91.308V177.508
						C312.308,192.896,321.244,208.243,321.244,267.933z"/>
				</g>
			</g>
			<circle fill="#FFFFFF" cx="72.847" cy="257.845" r="5.607"/>
			<circle fill="#FFFFFF" cx="249.966" cy="257.845" r="5.607"/>
		</g>
	</g>
	<g>
		<g>
			<g>
				<g>
					<g>
						<g>
							<path fill="#127045" d="M369.167,347.635c0,6.833-5.74,12.365-12.562,12.365l0,0c-6.835,0-12.571-5.532-12.571-12.365
								v-13.128c0-6.828,5.736-12.367,12.571-12.367l0,0c6.822,0,12.562,5.539,12.562,12.367V347.635z"/>
							<path fill="#127045" d="M491.235,347.635c0,6.833-5.194,12.365-12.016,12.365l0,0c-6.835,0-12.024-5.532-12.024-12.365
								v-13.128c0-6.828,5.19-12.367,12.024-12.367l0,0c6.822,0,12.016,5.539,12.016,12.367V347.635z"/>
							<path fill="#94CE28" d="M498.992,70H395.654h-58.901C321.381,70,307,81.77,307,97.141v10.074v206.204
								C307,328.79,321.381,344,336.753,344h58.901h103.339C514.365,344,530,328.79,530,313.419V107.216V97.141
								C530,81.77,514.365,70,498.992,70z"/>
						</g>
						<path fill="#1B9B05" d="M495.439,116h-99.785h-55.348c-6.736,0-11.306,5.058-11.306,11.794v168.892v8.592
							c0,4.764,2.296,9.645,6.282,11.651c1.646,0.828,3.056,2.071,5.025,2.071h55.276h99.857c1.965,0,3.498-1.241,5.141-2.065
							c3.992-2.004,6.419-6.888,6.419-11.657v-8.592V127.794C507,121.058,502.178,116,495.439,116z"/>
						<g>
							<path fill="#127045" d="M491.896,128.57c2.538,0,4.602,2,4.602,4.541l0,0c0,2.544-2.064,4.542-4.602,4.542H343.631
								c-2.544,0-4.602-1.997-4.602-4.542l0,0c0-2.542,2.058-4.541,4.602-4.541H491.896z"/>
						</g>
						<path fill="#FFFFFF" d="M350.056,145.991c0,3.715-3.018,6.729-6.727,6.729c-3.766,0-6.731-2.595-6.731-6.729
							c0-3.715,3.014-12.88,6.731-12.88C347.038,133.111,350.056,142.276,350.056,145.991z"/>
					</g>
					<path fill="#FC7575" d="M451.322,2h-55.668h-0.748h-10.663C375.422,2,369,10.552,369,19.375V70h9V18.425
						c0-1.834,3.46-6.425,6.244-6.425h10.663h0.748h55.668c2.787,0,6.678,4.384,6.678,7.168V70h11V19.168
						C469,10.344,460.144,2,451.322,2z"/>
				</g>
				<path fill="#D13D3D" d="M436.241,0h-36.104l0,0c-4.602,0-4.698,5.192-4.698,10.593c0,5.405-0.111,9.407,4.492,9.407l0,0h36.305
					h0.006c5.484,0,4.821-4.516,4.821-10C441.061,4.516,441.725,0,436.241,0z"/>
			</g>
			<g>
				<g>
					<polygon fill="#FC7575" points="583.769,175.913 570.72,175.914 570.72,149.652 583.769,149.398 					"/>
					<rect x="611.914" y="149.652" fill="#FC7575" width="13.304" height="26.262"/>
					<path fill="#D13D3D" d="M629.171,149.377c-8.602-8.602-19.901-12.903-31.201-12.903c-11.299,0-22.599,4.301-31.201,12.903
						c-3.079,3.079-3.079,8.066,0,11.145c3.146,3.149,4.504,6.648,11.146,0c5.53-5.53,12.792-8.294,20.055-8.294
						c7.263,0,14.526,2.765,20.056,8.294c1.538,1.539,3.556,2.309,5.573,2.309s4.035-0.77,5.573-2.309
						C632.25,157.443,632.25,152.455,629.171,149.377z"/>
				</g>
				<g>
					<path fill="#56BA22" d="M729.231,313.876v-91.887c-25.474,0-46.124-20.651-46.124-46.124h-3.473H597.97h-85.137
						c0,25.473-20.65,46.124-46.124,46.124v3.473v88.414c25.474,0,46.124,20.651,46.124,46.124h85.137h85.137
						C683.107,334.527,703.758,313.876,729.231,313.876z"/>
					<polygon fill="#3B7F0E" points="479.577,208.24 479.577,208.239 479.569,208.243 					"/>
					<path fill="#3B7F0E" d="M499.426,187.801c-0.002,0.005-0.004,0.012-0.006,0.017h0.001
						C499.421,187.818,499.424,187.807,499.426,187.801z"/>
					<path fill="#3B7F0E" d="M500.087,350.056L500.087,350.056c0.002,0.009,0.004,0.018,0.007,0.027
						C500.091,350.074,500.089,350.065,500.087,350.056z"/>
				</g>
				<rect x="495.074" y="201.142" fill="#94CE28" width="205.793" height="133.581"/>
				<path fill="#127045" d="M512.833,175.865h-11.288v0.001c0,0-0.003,0.038-0.003,0.057c0-0.019,0.002-0.038,0.002-0.038v-0.02
					h-10.038l0,0.001h-14.376c-5.756,0-10.423,4.666-10.423,10.423v14.375v10.037h0.001v11.288
					C492.183,221.989,512.833,201.339,512.833,175.865z M501.419,178.675c-0.019,0.23-0.042,0.458-0.065,0.687
					C501.377,179.133,501.4,178.905,501.419,178.675z M501.016,181.86c-0.012,0.072-0.021,0.144-0.034,0.215
					C500.995,182.004,501.004,181.932,501.016,181.86z M499.426,187.801c-0.002,0.005-0.004,0.012-0.004,0.012l-0.003,0.005
					C499.422,187.813,499.424,187.807,499.426,187.801z M469.722,210.557c0.23-0.02,0.46-0.041,0.689-0.066
					C470.182,210.516,469.953,210.537,469.722,210.557z M473.351,210.065c0.008-0.001,0.015-0.004,0.022-0.005
					C473.366,210.062,473.358,210.064,473.351,210.065z M476.24,209.363c0.175-0.05,0.351-0.1,0.525-0.152
					C476.59,209.263,476.415,209.313,476.24,209.363z M479.577,208.24c-0.003,0.001-0.005,0.002-0.008,0.003
					C479.572,208.241,479.575,208.24,479.577,208.24L479.577,208.24z"/>
				<path fill="#127045" d="M729.231,221.989v-11.288h-0.001v-10.037v-8.267v-6.11c0-5.756-4.666-10.423-10.423-10.423h-6.11
					h-18.303h-11.288C683.107,201.339,703.758,221.989,729.231,221.989z"/>
				<path fill="#127045" d="M466.709,313.876v11.288h-0.001v11.408v0.806v12.199c0,5.756,4.666,10.423,10.423,10.423h14.376h3.29
					h6.748c0-0.044-0.004-0.087-0.004-0.131c0,0.044,0.005,0.086,0.005,0.131h11.288
					C512.833,334.527,492.183,313.876,466.709,313.876z M500.087,350.056c0.003,0.009,0.004,0.018,0.007,0.027
					C500.091,350.073,500.088,350.065,500.087,350.056L500.087,350.056z"/>
				<path fill="#127045" d="M707.303,360h11.505c5.756,0,10.423-4.666,10.423-10.423v-15.261v-2.129v-7.022h0.001l0-11.288
					c-25.474,0-46.124,20.651-46.124,46.124h11.287H707.303z"/>
			</g>
		</g>
	</g>
</g>
</svg>
