<?xml version="1.0" encoding="utf-8"?>
<!-- Generator: Adobe Illustrator 17.0.0, SVG Export Plug-In . SVG Version: 6.00 Build 0)  -->
<!DOCTYPE svg PUBLIC "-//W3C//DTD SVG 1.1//EN" "http://www.w3.org/Graphics/SVG/1.1/DTD/svg11.dtd">
<svg version="1.1" xmlns="http://www.w3.org/2000/svg" xmlns:xlink="http://www.w3.org/1999/xlink" x="0px" y="0px" width="540px"
	 height="270px" viewBox="0 0 540 270" enable-background="new 0 0 540 270" xml:space="preserve">
<g id="Layer_2" display="none">
	<rect display="inline" fill="#D9E1E5" width="540" height="270"/>
</g>
<g id="Layer_1">
	<g>
		<g>
			<g>
				<g>
					<g>
						<g>
							<g>
								<g>
									<g>
										<g>
											<path fill="#56BA22" d="M206.033,23.269h-81.747c-26.265,0-47.56,21.282-47.58,47.543v0.075V269.71h176.907V70.849
												C253.613,44.571,232.31,23.269,206.033,23.269z"/>
										</g>
									</g>
								</g>
							</g>
						</g>
					</g>
				</g>
			</g>
			<path fill="#1B9B05" d="M222.735,137.105c0,3.131-2.538,5.669-5.669,5.669H112.632c-3.131,0-5.669-2.538-5.669-5.669l0,0
				c0-3.131,2.538-5.669,5.669-5.669h104.433C220.196,131.436,222.735,133.974,222.735,137.105L222.735,137.105z"/>
			<path fill="#1B9B05" d="M222.735,184.915c0,3.131-2.538,5.669-5.669,5.669H112.632c-3.131,0-5.669-2.538-5.669-5.669l0,0
				c0-3.131,2.538-5.669,5.669-5.669h104.433C220.196,179.246,222.735,181.784,222.735,184.915L222.735,184.915z"/>
			<g>
				<path fill="#94CE28" d="M209.886,23.59v63.368h2.485c15.003,0,27.165-3.058,27.165-18.061v-9.06
					C236.443,43.336,225.064,29.763,209.886,23.59z"/>
				<path fill="#94CE28" d="M90.783,68.897c0,15.003,12.162,18.061,27.165,18.061h2.485V23.939
					C102.999,31.413,90.783,48.726,90.783,68.897z"/>
				<polygon fill="#F1FF8D" points="151.424,85.928 122.28,85.928 122.28,85.928 208.039,85.928 208.039,85.928 179.711,85.928 				
					"/>
				<path fill="#F1FF8D" d="M191.49,20h-51.81c-6.835,0-13.339,1.407-19.247,3.939v63.018h30.399h29.505h29.548V23.59
					C204.207,21.281,198,20,191.49,20z"/>
			</g>
			<rect x="120.434" y="86.958" fill="#D0EB51" width="89.452" height="28.004"/>
			<rect x="253.613" y="214.641" fill="#015B25" width="32.774" height="55.07"/>
			<rect x="43.933" y="214.641" fill="#94CE28" width="32.774" height="55.07"/>
			<g>
				<path fill="#F1FF8D" d="M280.575,180.485H274.8h-21.186v14.157h0v19.998H274.8h11.587v-28.343
					C286.387,183.087,283.785,180.485,280.575,180.485z"/>
				<path fill="#F1FF8D" d="M49.745,180.485c-3.21,0-5.812,2.602-5.812,5.812v28.343H55.52h21.186v-19.998h0v-14.157H55.52H49.745z"
					/>
			</g>
			<rect x="253.613" y="214.641" fill="#94CE28" width="32.774" height="55.07"/>
			<g>
				<rect x="76.706" y="225.627" fill="#1B9B05" width="176.907" height="44.373"/>
			</g>
			<g>
				<g>
					<path fill="#D0EB51" d="M128.37,201.482c-2.735-3.718-4.37-8.294-4.37-13.264c0-12.391,10.044-22.435,22.435-22.435
						c12.391,0,22.435,10.044,22.435,22.435c0,4.97-1.636,9.546-4.37,13.264c13.211,4.742,24.008,14.539,30.074,27.056v-99.375
						H98.296v99.374C104.363,216.021,115.159,206.225,128.37,201.482z"/>
					<path fill="#94CE28" d="M194.573,251.818v-23.28c-6.066-12.517-16.862-22.313-30.074-27.056
						c2.735-3.718,4.37-8.294,4.37-13.264c0-12.391-10.045-22.435-22.435-22.435c-12.391,0-22.435,10.044-22.435,22.435
						c0,4.97,1.636,9.546,4.37,13.264c-13.211,4.742-24.008,14.539-30.074,27.055v23.281H194.573z"/>
				</g>
				<path fill="#D13D3D" d="M183.415,150.942c0,2.869-2.326,5.195-5.195,5.195h-63.571c-2.869,0-5.195-2.326-5.195-5.195l0,0
					c0-2.869,2.326-5.195,5.195-5.195h63.571C181.09,145.747,183.415,148.073,183.415,150.942L183.415,150.942z"/>
				<path fill="#FFFFFF" d="M159.092,176.578c0,2.869-2.326,5.195-5.195,5.195h-40.844c-2.869,0-5.195-2.326-5.195-5.195l0,0
					c0-2.869,2.326-5.195,5.195-5.195h40.844C156.766,171.383,159.092,173.709,159.092,176.578L159.092,176.578z"/>
				<path fill="#FFFFFF" d="M140.91,197.808c0,2.869-2.326,5.195-5.195,5.195h-22.662c-2.869,0-5.195-2.326-5.195-5.195l0,0
					c0-2.869,2.326-5.195,5.195-5.195h22.662C138.584,192.613,140.91,194.939,140.91,197.808L140.91,197.808z"/>
				<path fill="#FFFFFF" d="M159.092,223.017c0,2.869-2.326,5.195-5.195,5.195h-40.844c-2.869,0-5.195-2.326-5.195-5.195l0,0
					c0-2.869,2.326-5.195,5.195-5.195h40.844C156.766,217.822,159.092,220.148,159.092,223.017L159.092,223.017z"/>
				<g>
					<g>
						<g>
							<path fill="#D13D3D" d="M228.904,244.34c0,4.13-3.348,7.479-7.479,7.479h-26.773c-4.13,0-7.479-3.348-7.479-7.479v-60.283
								c0-4.13,3.348-7.479,7.479-7.479h26.773c4.13,0,7.479,3.348,7.479,7.479V244.34z"/>
							<rect x="194.652" y="184.056" fill="#FFFFFF" width="26.772" height="26.425"/>
							<circle fill="#FFAEAE" cx="208.039" cy="230.922" r="14.57"/>
							<circle fill="#7F2C28" cx="208.039" cy="230.922" r="5.734"/>
							<path fill="#7F2C28" d="M214.819,188.793h-8.712h-2.88v5.142v5.097c-0.316-0.084-0.641-0.142-0.984-0.142
								c-2.134,0-3.863,1.73-3.863,3.863c0,2.134,1.729,3.863,3.863,3.863c2.134,0,3.863-1.73,3.863-3.863l0,0v-8.818h8.712v5.097
								c-0.316-0.084-0.641-0.142-0.984-0.142c-2.134,0-3.863,1.73-3.863,3.863c0,2.134,1.729,3.863,3.863,3.863
								c2.134,0,3.863-1.73,3.863-3.863v-8.818v-5.142H214.819z"/>
						</g>
					</g>
				</g>
			</g>
		</g>
		<g>
			<g>
				<g>
					<g>
						<g>
							<g>
								<g>
									<g>
										<g>
											<path fill="#56BA22" d="M415.713,23.269h-81.747c-26.265,0-47.56,21.282-47.58,47.543v0.075V269.71h176.907V70.849
												C463.294,44.571,441.99,23.269,415.713,23.269z"/>
										</g>
									</g>
								</g>
							</g>
						</g>
					</g>
				</g>
			</g>
			<path fill="#1B9B05" d="M432.415,137.105c0,3.131-2.538,5.669-5.669,5.669H322.313c-3.131,0-5.669-2.538-5.669-5.669l0,0
				c0-3.131,2.538-5.669,5.669-5.669h104.433C429.877,131.436,432.415,133.974,432.415,137.105L432.415,137.105z"/>
			<path fill="#1B9B05" d="M432.415,184.915c0,3.131-2.538,5.669-5.669,5.669H322.313c-3.131,0-5.669-2.538-5.669-5.669l0,0
				c0-3.131,2.538-5.669,5.669-5.669h104.433C429.877,179.246,432.415,181.784,432.415,184.915L432.415,184.915z"/>
			<g>
				<path fill="#94CE28" d="M419.566,23.59v63.368h2.485c15.003,0,27.165-3.058,27.165-18.061v-9.06
					C446.123,43.336,434.745,29.763,419.566,23.59z"/>
				<path fill="#94CE28" d="M300.464,68.897c0,15.003,12.162,18.061,27.165,18.061h2.485V23.939
					C312.679,31.413,300.464,48.726,300.464,68.897z"/>
				<polygon fill="#F1FF8D" points="361.105,85.928 331.961,85.928 331.961,85.928 417.719,85.928 417.719,85.928 389.392,85.928 
									"/>
				<path fill="#F1FF8D" d="M401.171,20h-51.81c-6.835,0-13.339,1.407-19.247,3.939v63.018h30.399h29.505h29.548V23.59
					C413.887,21.281,407.68,20,401.171,20z"/>
			</g>
			<rect x="330.114" y="86.958" fill="#D0EB51" width="89.452" height="28.004"/>
			<rect x="463.294" y="214.641" fill="#015B25" width="32.774" height="55.07"/>
			<rect x="253.613" y="214.641" fill="#94CE28" width="32.774" height="55.07"/>
			<g>
				<path fill="#F1FF8D" d="M490.255,180.485h-5.775h-21.186v14.157h0v19.998h21.186h11.587v-28.343
					C496.067,183.087,493.465,180.485,490.255,180.485z"/>
				<path fill="#F1FF8D" d="M259.425,180.485c-3.21,0-5.812,2.602-5.812,5.812v28.343H265.2h21.186v-19.998h0v-14.157H265.2H259.425
					z"/>
			</g>
			<rect x="463.294" y="214.641" fill="#94CE28" width="32.774" height="55.07"/>
			<g>
				<rect x="286.387" y="225.627" fill="#1B9B05" width="176.907" height="44.373"/>
			</g>
			<g>
				<g>
					<g>
						<path fill="#FFFFFF" d="M413.193,152.955h-45.062h-31.391c-2.804,0-5.223,1.943-5.223,4.747v91.404
							c0,2.804,2.42,5.456,5.223,5.456h31.391h45.062c2.804,0,4.972-2.652,4.972-5.456v-91.404
							C418.165,154.897,415.996,152.955,413.193,152.955z"/>
						<rect x="341.46" y="161.983" fill="#94CE28" width="67.676" height="71.649"/>
					</g>
					<g>
						<path fill="#D0EB51" d="M375.329,181.21h-0.135v-0.047c-10.01,0.002-18.969,3.8-25.919,10.695l4.224,4.256
							c5.818-5.761,13.688-8.932,21.696-8.934v0.035h0.134c8.199,0,15.914,3.089,21.736,8.853l4.258-4.212
							C394.355,184.957,385.131,181.21,375.329,181.21z"/>
						<path fill="#D0EB51" d="M375.325,193.871h-0.132v0.012c-6.006,0.001-12.393,2.475-16.951,6.972l4.287,4.255
							c3.411-3.363,7.659-5.213,12.664-5.214v-0.019h0.134c4.8,0,9.32,1.619,12.733,4.978l4.252-4.131
							C387.772,196.226,381.745,193.871,375.325,193.871z"/>
						<path fill="#D0EB51" d="M375.26,206.373c0.02,0,0.041-0.003,0.061-0.003h-0.127v0.006c-2.96,0.035-5.809,1.292-7.936,3.356
							l7.936,8.115l7.998-8.231C381.048,207.537,378.238,206.391,375.26,206.373z"/>
					</g>
				</g>
				<circle fill="#EF5854" cx="375.661" cy="244.096" r="4.809"/>
			</g>
		</g>
	</g>
</g>
</svg>
