<svg xmlns="http://www.w3.org/2000/svg" xmlns:xlink="http://www.w3.org/1999/xlink" width="229" height="241" viewBox="0 0 229 241">
    <defs>
        <path id="a" d="M.18 82.961c0 45.802 37.087 82.931 82.837 82.931s82.838-37.13 82.838-82.931C165.855 37.159 128.767.03 83.017.03 37.267.03.18 37.16.18 82.96"/>
        <path id="c" d="M.18 82.961c0 45.802 37.087 82.931 82.837 82.931s82.838-37.13 82.838-82.931C165.855 37.159 128.767.03 83.017.03 37.267.03.18 37.16.18 82.96"/>
        <path id="e" d="M.18 82.961c0 45.802 37.087 82.931 82.837 82.931s82.838-37.13 82.838-82.931C165.855 37.159 128.767.03 83.017.03 37.267.03.18 37.16.18 82.96"/>
        <path id="g" d="M.18 82.961c0 45.802 37.087 82.931 82.837 82.931s82.838-37.13 82.838-82.931C165.855 37.159 128.767.03 83.017.03 37.267.03.18 37.16.18 82.96"/>
        <path id="i" d="M.18 82.961c0 45.802 37.087 82.931 82.837 82.931s82.838-37.13 82.838-82.931C165.855 37.159 128.767.03 83.017.03 37.267.03.18 37.16.18 82.96"/>
        <path id="k" d="M0 267.42h191.817V.04H0z"/>
        <path id="m" d="M105.388 180.641s1.479-7.403 23.665-17.769v-15.547s-25.884-15.548-8.135-37.02c0 0 18.706 18.728 26.919 30.962a11.474 11.474 0 0 1 1.923 6.4v73.592H97.253v-19.636c0-2.66-1.71-4.996-4.223-5.856-3.705-1.268-8.772-3.676-10.568-7.722-.901-2.03 22.926-7.404 22.926-7.404z"/>
        <path id="o" d="M2.886.092A2.798 2.798 0 0 0 .088 2.89v14.515a2.798 2.798 0 0 0 2.798 2.798h14.52a2.798 2.798 0 0 0 2.798-2.798V2.89A2.798 2.798 0 0 0 17.405.092H2.886z"/>
        <path id="q" d="M13.434.043h-4.01a.27.27 0 0 0-.268.27v3.582h.447a.122.122 0 0 1 .115.122.12.12 0 0 1-.026.072L7.125 6.704a.268.268 0 0 0 0 .342l2.567 2.615c.017.02.026.046.026.072 0 .065-.05.118-.115.122h-.447v3.583c0 .148.12.269.269.269h4.009a.27.27 0 0 0 .27-.27V.313a.27.27 0 0 0-.27-.269zM.312.043a.27.27 0 0 0-.27.27v13.125c0 .148.121.269.27.269H4.33a.27.27 0 0 0 .27-.27V9.856h-.443a.123.123 0 0 1-.08-.208l2.554-2.602a.267.267 0 0 0 0-.34L4.077 4.104a.122.122 0 1 1 .08-.208h.442V.311A.27.27 0 0 0 4.33.043H.312z"/>
        <path id="s" d="M27.268 9.423a.405.405 0 0 1 0 .582l-1.784 1.784a1.227 1.227 0 0 1-.86.354h-17a.815.815 0 0 1-.81-.81V8.095c0-.442.367-.81.81-.81h7.286v-.809c0-.443.367-.81.81-.81h1.618c.443 0 .81.367.81.81v.81h6.476c.316 0 .633.126.86.354l1.784 1.783zM14.91 21.048h3.238v6.476c0 .443-.367.81-.81.81H15.72a.815.815 0 0 1-.81-.81v-6.476zm10.524-5.667c.442 0 .81.367.81.81v3.238c0 .442-.368.81-.81.81h-17c-.317 0-.633-.127-.86-.355L5.79 18.1a.405.405 0 0 1 0-.581l1.783-1.784c.228-.228.544-.354.86-.354h6.477v-2.429h3.238v2.429h7.286z"/>
        <path id="u" d="M12.5 21.28a.65.65 0 0 1-.46-.189l-6.53-6.298c-.083-.074-2.385-2.177-2.385-4.688 0-3.066 1.873-4.897 5.001-4.897 1.831 0 3.547 1.444 4.374 2.26.827-.816 2.543-2.26 4.374-2.26 3.128 0 5.001 1.831 5.001 4.897 0 2.511-2.302 4.614-2.396 4.709L12.96 21.09a.65.65 0 0 1-.46.189z"/>
    </defs>
    <g fill="none" fill-rule="evenodd">
        <g fill="#D4E5F7" fill-opacity=".4">
            <path d="M145.59 193.538a2.227 2.227 0 0 1-.777-4.312c14.147-5.283 26.91-14.115 36.908-25.54a2.222 2.222 0 0 1 3.137-.208 2.227 2.227 0 0 1 .207 3.14c-10.482 11.978-23.864 21.239-38.699 26.78-.256.095-.518.14-.776.14M62.494 26.348a2.227 2.227 0 0 1-1.194-4.104 96.307 96.307 0 0 1 9.369-5.25 2.221 2.221 0 0 1 2.973 1.024 2.227 2.227 0 0 1-1.023 2.976 91.967 91.967 0 0 0-8.934 5.007 2.21 2.21 0 0 1-1.19.347M19.226 98.54a2.225 2.225 0 0 1-2.22-2.39c.952-12.815 4.393-25.096 10.23-36.501 6.213-12.144 15.158-23.06 25.87-31.567a2.222 2.222 0 0 1 3.123.36 2.228 2.228 0 0 1-.36 3.127c-10.218 8.115-18.75 18.527-24.676 30.11-5.564 10.873-8.846 22.582-9.752 34.8a2.225 2.225 0 0 1-2.215 2.06M43.487 168.857a2.217 2.217 0 0 1-1.642-.724 96.873 96.873 0 0 1-7.078-8.722 2.227 2.227 0 0 1 .505-3.107 2.221 2.221 0 0 1 3.103.506 92.446 92.446 0 0 0 6.752 8.32 2.227 2.227 0 0 1-1.64 3.727M103.86 199.018c-.07 0-.14-.003-.211-.01a96.455 96.455 0 0 1-8.89-1.26c-17.133-3.254-33.082-11.165-46.122-22.877a2.227 2.227 0 0 1-.17-3.143 2.222 2.222 0 0 1 3.14-.17c12.436 11.17 27.644 18.714 43.98 21.817 2.791.53 5.644.934 8.479 1.202a2.225 2.225 0 0 1-.206 4.441M205.007 122.883a2.226 2.226 0 0 1-2.188-2.634 92.29 92.29 0 0 0 1.079-7.514 2.223 2.223 0 1 1 4.423.45 96.875 96.875 0 0 1-1.131 7.88 2.224 2.224 0 0 1-2.183 1.818M206.594 105.59a2.224 2.224 0 0 1-2.223-2.226c0-10.797-1.858-21.366-5.524-31.413a2.222 2.222 0 1 1 4.176-1.527c3.845 10.538 5.794 21.62 5.794 32.94a2.224 2.224 0 0 1-2.223 2.225M195.273 60.857c-.788 0-1.552-.421-1.955-1.164-16.062-29.577-46.923-47.951-80.54-47.951a2.224 2.224 0 0 1-2.223-2.226c0-1.229.996-2.225 2.223-2.225 35.247 0 67.605 19.264 84.446 50.276a2.227 2.227 0 0 1-1.95 3.29"/>
        </g>
        <path fill="#FFF" d="M184.68 35.079a6.177 6.177 0 0 0-4.282 1.72c-.184-5.25-4.49-9.449-9.779-9.449-5.304 0-9.62 4.224-9.78 9.495a6.188 6.188 0 0 0-4.833-2.318 6.206 6.206 0 0 0-6.19 5.823 4.54 4.54 0 0 0-3.736-1.959 4.552 4.552 0 0 0-4.549 4.555 4.552 4.552 0 0 0 4.55 4.554h38.6a6.207 6.207 0 0 0 6.204-6.21c0-3.43-2.778-6.211-6.204-6.211"/>
        <g fill="#FFF">
            <path d="M131.812 21.497a.795.795 0 0 1-.181-.02 84.753 84.753 0 0 0-9.31-1.591.809.809 0 0 1 .183-1.608c3.18.36 6.371.906 9.488 1.62a.81.81 0 0 1-.18 1.599M50.625 46.216a.81.81 0 0 1-.59-1.363c7.871-8.4 17.18-15.025 27.665-19.69 11.166-4.968 23.56-7.537 35.804-7.433a.808.808 0 0 1-.007 1.618h-.007c-12.03-.103-24.177 2.42-35.133 7.294-10.288 4.577-19.42 11.077-27.142 19.319a.806.806 0 0 1-.59.255M27.673 109.828a.809.809 0 0 1-.806-.76 87.02 87.02 0 0 1-.03-10.076.809.809 0 0 1 1.615.089 85.39 85.39 0 0 0 .029 9.888.809.809 0 0 1-.808.859M53.171 165.678a.807.807 0 0 1-.564-.23 86.56 86.56 0 0 1-5.493-5.891c-10.119-11.929-16.792-26.438-19.3-41.96a.81.81 0 0 1 1.597-.258c2.46 15.23 9.008 29.466 18.936 41.17a84.938 84.938 0 0 0 5.389 5.78.81.81 0 0 1-.565 1.389M112.825 190.034a86.112 86.112 0 0 1-27.265-4.415.81.81 0 0 1 .513-1.535c13.21 4.414 27.48 5.48 41.268 3.08a.809.809 0 1 1 .277 1.595 86.303 86.303 0 0 1-14.793 1.275M168.149 169.654a.81.81 0 0 1-.526-1.424 84.45 84.45 0 0 0 5.124-4.767.807.807 0 1 1 1.148 1.139 86.512 86.512 0 0 1-5.221 4.858.807.807 0 0 1-.525.194M179.137 158.331a.81.81 0 0 1-.628-1.318c6.248-7.748 11.031-16.41 14.216-25.748a.808.808 0 1 1 1.53.523c-3.246 9.517-8.12 18.346-14.488 26.242a.807.807 0 0 1-.63.301M196.648 120.216a.81.81 0 0 1-.796-.956c5.591-30.542-5.921-61.63-30.046-81.13a.81.81 0 0 1 1.016-1.259c24.586 19.873 36.319 51.555 30.62 82.681a.81.81 0 0 1-.794.664"/>
        </g>
        <path fill="#36DCD2" d="M195.616 103.857c0 45.801-37.087 82.931-82.837 82.931s-82.838-37.13-82.838-82.931c0-45.802 37.088-82.931 82.838-82.931 45.75 0 82.837 37.129 82.837 82.93"/>
        <path fill="#5EE3DB" d="M144.639 34.844s48.66 90.47-35.916 147.304c0 0 149.456-33.636 35.916-147.304"/>
        <g>
            <g transform="translate(29.761 20.896)">
                <mask id="b" fill="#fff">
                    <use xlink:href="#a"/>
                </mask>
                <path fill="#42B978" d="M34.936 12.788c1.28-.646 7.314 3.856 8.119 5.044 1.754 2.589 4.526 7.815 1.15 11.195-4.634 4.639-3.476 8.119 0 12.758 3.476 4.64 2.317 11.599 1.159 12.759l-5.036 5.042c-4.215 4.219-12.017 3.988-14.556-1.41-.85-1.807-7.056 5.606-7.056 6.807 0 1.16 0 13.918 1.159 17.398.976 2.93 9.342 9.97 11.963 12.123.488.4 1.09.634 1.72.657 2.204.08 7.656.464 9.489 2.298 2.317 2.32 5.792 16.238-1.16 24.358-4.185 4.889-5.85 12.722-6.513 18.181-.29 2.395-3.221 3.39-4.925 1.683l-9.868-9.878a2.887 2.887 0 0 1-.824-1.675c-.518-4.031-2.77-19.584-7.437-26.147a2.782 2.782 0 0 1-.5-1.764c.217-4.282-1.37-15.82-2.372-19.836-1.159-4.64-12.744-25.518-8.11-31.317 4.17-5.219 25.11-33.993 33.598-38.276" mask="url(#b)"/>
            </g>
            <g transform="translate(29.761 20.896)">
                <mask id="d" fill="#fff">
                    <use xlink:href="#c"/>
                </mask>
                <path fill="#42B978" d="M26.826 71.942s-2.317 8.12 5.793 10.439c8.11 2.32-2.317-8.12-2.317-8.12s-1.159-2.32-3.476-2.32" mask="url(#d)"/>
            </g>
            <g transform="translate(29.761 20.896)">
                <mask id="f" fill="#fff">
                    <use xlink:href="#e"/>
                </mask>
                <path fill="#42B978" d="M69.694 20.907s-6.952-6.959-16.22 6.96c0 0-5.793 11.598 2.316 8.119 0 0 10.428-8.12 13.904-8.12 0 0 2.317-4.64 0-6.959" mask="url(#f)"/>
            </g>
            <g transform="translate(29.761 20.896)">
                <mask id="h" fill="#fff">
                    <use xlink:href="#g"/>
                </mask>
                <path fill="#42B978" d="M128.468 22.086c-4.774 2.17-14.857 6.896-20.094 10.414a6.04 6.04 0 0 1-3.754 1.02c-4.371-.269-14.264-.744-18.707.146-3.05.61-5.137 3.473-6.429 6.046a6.09 6.09 0 0 1-6.508 3.266c-3.329-.586-7.266-.827-7.917 1.127-.58 1.74 0 3.19 1.303 4.35 2.927 2.603 2.49 7.366-.692 9.65-.567.405-1.158.772-1.77 1.078-4.634 2.32 0 8.12 8.11 1.16 8.11-6.96 11.586 2.32 15.062 3.48 2.033.678 4.859.563 7.318-.114 3.869-1.064 7.892 1.765 7.775 5.78-.068 2.344-1.48 4.628-5.824 5.932 0 0-11.476 5.223-16.608-1.182-.721-.899-1.622-1.636-2.703-2.036-3.141-1.162-9.595-2.316-15.446 4.378 0 0-15.264 14.19-4.544 22.45a6.11 6.11 0 0 0 2.123 1.06c2.162.59 7.264 1.734 11.69.848 5.792-1.16 11.585 8.119 10.426 13.919-1.158 5.799-2.317 27.836 6.952 27.836 0 0 18.537-1.16 26.647-46.395.844-4.707-3.476-9.279 2.317-9.279s3.476-9.279 3.476-12.759c0-3.479 8.11 5.8 8.11 6.96 0 1.16 8.11 13.919 11.585 11.599 3.476-2.32 16.22-10.44 16.22-12.759 0-2.32 10.427-23.198 6.952-27.837-2.974-3.969-17.643-26.515-25.489-32.477-1.768-1.343-7.56 1.42-9.58 2.339" mask="url(#h)"/>
            </g>
            <g transform="translate(29.761 20.896)">
                <mask id="j" fill="#fff">
                    <use xlink:href="#i"/>
                </mask>
                <path fill="#42B978" d="M117.195 121.817s-12.744 6.959-5.793 16.238c0 0 4.634 0 5.793-6.96 1.158-6.959 4.634-4.639 0-9.278" mask="url(#j)"/>
            </g>
        </g>
        <g transform="translate(17 7.25)">
            <path fill="#FFF" d="M180.723 123.68a6.177 6.177 0 0 0-4.283 1.72c-.184-5.249-4.49-9.448-9.778-9.448-5.305 0-9.62 4.224-9.78 9.495a6.188 6.188 0 0 0-4.833-2.318 6.206 6.206 0 0 0-6.191 5.823 4.54 4.54 0 0 0-3.735-1.959 4.552 4.552 0 0 0-4.55 4.555 4.552 4.552 0 0 0 4.55 4.554h38.6a6.207 6.207 0 0 0 6.204-6.21c0-3.43-2.778-6.211-6.204-6.211M38.204 87.053c-1.321 0-2.52.52-3.405 1.367-.147-4.174-3.572-7.514-7.777-7.514-4.219 0-7.65 3.36-7.778 7.551a4.92 4.92 0 0 0-3.844-1.843 4.935 4.935 0 0 0-4.923 4.63 3.61 3.61 0 0 0-2.97-1.557 3.62 3.62 0 0 0-3.618 3.622c0 2 1.62 3.622 3.618 3.622h30.697a4.936 4.936 0 0 0 4.934-4.94 4.936 4.936 0 0 0-4.934-4.938M109.365 28.025a4.936 4.936 0 0 0-3.421 1.374c-.148-4.193-3.587-7.548-7.812-7.548-4.236 0-7.684 3.374-7.812 7.585a4.944 4.944 0 0 0-3.86-1.852 4.957 4.957 0 0 0-4.945 4.651 3.628 3.628 0 0 0-2.984-1.564 3.636 3.636 0 0 0-3.634 3.638 3.636 3.636 0 0 0 3.634 3.638h30.834a4.958 4.958 0 0 0 4.955-4.961 4.958 4.958 0 0 0-4.955-4.961"/>
            <path fill="#ECC29B" d="M69.065 127.329a8.526 8.526 0 0 1-11.953 1.65l-15.226-11.55c-3.755-2.849-4.493-8.207-1.648-11.967a8.525 8.525 0 0 1 11.953-1.65l15.226 11.55c3.756 2.85 4.494 8.207 1.648 11.967M71.369 172.497s4.437 19.25 21.817 23.321l14.42-9.994-16.27-18.51-19.967 5.183z"/>
            <path fill="#313131" d="M132.36 180.641H64.068a1.352 1.352 0 0 1-1.35-1.352V50.207c0-.747.604-1.353 1.35-1.353h68.294c.746 0 1.351.606 1.351 1.353v129.082c0 .747-.605 1.352-1.351 1.352"/>
            <path stroke="#313131" stroke-width="3.825" d="M132.36 180.641H64.068a1.352 1.352 0 0 1-1.35-1.352V50.207c0-.747.604-1.353 1.35-1.353h68.294c.746 0 1.351.606 1.351 1.353v129.082c0 .747-.605 1.352-1.351 1.352z"/>
            <mask id="l" fill="#fff">
                <use xlink:href="#k"/>
            </mask>
            <path fill="#FFF" d="M68.632 168.055h59.164V55.518H68.632z" mask="url(#l)"/>
            <path stroke="#FFF" stroke-width="2.878" d="M68.632 168.055h59.164V55.518H68.632z" mask="url(#l)"/>
            <path fill="#FFF" d="M68.632 168.055h59.164V55.518H68.632z" mask="url(#l)"/>
            <path stroke="#FFF" stroke-width="2.878" d="M68.632 168.055h59.164V55.518H68.632z" mask="url(#l)"/>
            <g mask="url(#l)">
                <path fill="#DDD" d="M124.141 125.154H72.307a.38.38 0 0 1-.38-.38v-14.93c0-.21.17-.38.38-.38h51.834c.21 0 .38.17.38.38v14.93c0 .21-.17.38-.38.38"/>
                <path fill="#EEE" d="M89.627 125.235h-17.32a.38.38 0 0 1-.38-.38v-15.01c0-.21.17-.38.38-.38h17.32c.21 0 .38.17.38.38v15.01c0 .21-.17.38-.38.38"/>
                <path fill="#C1C1C1" d="M93.39 115.42h16.55v-2.761H93.39zM93.39 118.104h22.066v-1.38H93.39z"/>
            </g>
            <g mask="url(#l)">
                <path fill="#DDD" d="M124.141 104.539H72.307a.38.38 0 0 1-.38-.38v-14.93c0-.21.17-.38.38-.38h51.834c.21 0 .38.17.38.38v14.93c0 .21-.17.38-.38.38"/>
                <path fill="#EEE" d="M89.627 104.62h-17.32a.38.38 0 0 1-.38-.38V89.23c0-.21.17-.38.38-.38h17.32c.21 0 .38.17.38.38v15.01c0 .21-.17.38-.38.38"/>
                <path fill="#C1C1C1" d="M93.39 94.805h16.55v-2.762H93.39zM93.39 97.489h22.066v-1.38H93.39z"/>
            </g>
            <g mask="url(#l)">
                <path fill="#DDD" d="M124.13 145.982H72.298a.38.38 0 0 1-.38-.38v-14.93c0-.21.17-.38.38-.38h51.834c.21 0 .38.17.38.38v14.93c0 .21-.17.38-.38.38"/>
                <path fill="#EEE" d="M89.617 146.073h-17.32a.38.38 0 0 1-.38-.38v-15.01c0-.21.17-.38.38-.38h17.32c.21 0 .38.17.38.38v15.01c0 .21-.17.38-.38.38"/>
                <path fill="#C1C1C1" d="M93.309 136.266h16.55v-2.762h-16.55zM93.309 139.027h22.066v-1.38H93.309z"/>
            </g>
            <g mask="url(#l)">
                <path fill="#DDD" d="M124.13 166.888H72.298a.38.38 0 0 1-.38-.38v-14.93c0-.21.17-.38.38-.38h51.834c.21 0 .38.17.38.38v14.93c0 .21-.17.38-.38.38"/>
                <path fill="#EEE" d="M89.617 166.979h-17.32a.38.38 0 0 1-.38-.38v-15.01c0-.21.17-.38.38-.38h17.32c.21 0 .38.17.38.38v15.01c0 .21-.17.38-.38.38"/>
                <path fill="#C1C1C1" d="M93.309 157.172h16.55v-2.762h-16.55zM93.309 159.933h22.066v-1.38H93.309z"/>
            </g>
            <path fill="#5A5A5A" d="M105.989 176.94h-15.55a.36.36 0 0 1-.36-.361v-4.461c0-.2.161-.361.36-.361h15.55a.36.36 0 0 1 .36.36v4.462c0 .199-.161.36-.36.36" mask="url(#l)"/>
            <path stroke="#FFF" stroke-linecap="round" stroke-linejoin="round" stroke-width="2.878" d="M87.86 51.816h16.27M105.98 51.816h2.218" mask="url(#l)"/>
            <path fill="#ECC29B" d="M69.949 179.78a8.526 8.526 0 0 1-11.953 1.65l-5.18-3.93c-3.756-2.848-4.493-8.206-1.648-11.966a8.525 8.525 0 0 1 11.953-1.65l5.18 3.93c3.756 2.849 4.493 8.206 1.648 11.966" mask="url(#l)"/>
            <path fill="#ECC29B" d="M69.949 163.492a8.526 8.526 0 0 1-11.953 1.65l-5.18-3.93c-3.756-2.849-4.493-8.206-1.648-11.966a8.525 8.525 0 0 1 11.953-1.65l5.18 3.93c3.756 2.848 4.493 8.206 1.648 11.966" mask="url(#l)"/>
            <path fill="#F0CEAF" d="M69.949 179.78a8.526 8.526 0 0 1-11.953 1.65l-5.18-3.93c-3.756-2.848-4.493-8.206-1.648-11.966M69.949 163.486a8.526 8.526 0 0 1-11.953 1.65l-5.18-3.93c-3.756-2.848-4.493-8.206-1.648-11.966" mask="url(#l)"/>
            <path fill="#ECC29B" d="M69.949 146.356a8.526 8.526 0 0 1-11.953 1.65l-5.18-3.93c-3.756-2.848-4.493-8.206-1.648-11.966a8.525 8.525 0 0 1 11.953-1.65l5.18 3.93c3.756 2.849 4.493 8.206 1.648 11.966" mask="url(#l)"/>
            <path fill="#F0CEAF" d="M69.949 146.356a8.526 8.526 0 0 1-11.953 1.65l-5.18-3.93c-3.756-2.848-4.493-8.206-1.648-11.966" mask="url(#l)"/>
            <path fill="#F6E4D3" d="M69.084 173.708l-6.506-4.936-5.218 6.894 6.506 4.936a.6.6 0 0 0 .842-.117l4.492-5.934a.602.602 0 0 0-.116-.843M69.084 156.996l-6.506-4.935-5.218 6.894 6.506 4.935a.6.6 0 0 0 .842-.117l4.492-5.934a.603.603 0 0 0-.116-.843M68.666 140.284l-6.506-4.935-5.217 6.894 6.506 4.935c.264.2.642.149.842-.116l4.491-5.935a.602.602 0 0 0-.116-.843" mask="url(#l)"/>
            <mask id="n" fill="#fff">
                <use xlink:href="#m"/>
            </mask>
            <use fill="#ECC29B" xlink:href="#m"/>
            <path fill="#F6E4D3" d="M120.719 110.501c-.173 1.947-2.456 11.275 8.812 8.768l-8.472-8.884a.197.197 0 0 0-.34.116" mask="url(#n)"/>
            <path fill="#F0CEAF" d="M149.76 150.493s-1.665 26.186-19.78 39.654c-2.13 1.584-3.513 4.392-3.731 7.04l.394 70.232 22.92-.23.197-116.696z" mask="url(#n)"/>
        </g>
        <g>
            <g transform="translate(105 69)">
                <mask id="p" fill="#fff">
                    <use xlink:href="#o"/>
                </mask>
                <path fill="#FF7346" d="M-1.217 21.508h22.726V-1.213H-1.217z" mask="url(#p)"/>
            </g>
            <g transform="translate(108.273 72.273)">
                <mask id="r" fill="#fff">
                    <use xlink:href="#q"/>
                </mask>
                <path fill="#FFF" d="M-1.258 15.007h16.262V-1.257H-1.258z" mask="url(#r)"/>
            </g>
        </g>
        <g>
            <path fill="#F13C50" d="M60 146c0 13.807-11.193 25-25 25-13.808 0-25-11.193-25-25s11.192-25 25-25c13.807 0 25 11.193 25 25"/>
            <g transform="translate(17.692 129.462)">
                <mask id="t" fill="#fff">
                    <use xlink:href="#s"/>
                </mask>
                <g fill="#FFF" mask="url(#t)">
                    <path d="M0 0h34v34H0z"/>
                </g>
            </g>
        </g>
        <g>
            <path fill="#FFCA05" d="M74 43.5C74 57.03 63.03 68 49.5 68 35.968 68 25 57.03 25 43.5 25 29.969 35.968 19 49.5 19 63.03 19 74 29.969 74 43.5"/>
            <g transform="translate(37.062 31.062)">
                <mask id="v" fill="#fff">
                    <use xlink:href="#u"/>
                </mask>
                <use fill="#313131" xlink:href="#u"/>
                <g fill="#FFF" mask="url(#v)">
                    <path d="M0 0h25v25H0z"/>
                </g>
            </g>
        </g>
        <g>
            <path fill="#785395" d="M219 77.5c0 13.53-10.97 24.5-24.5 24.5-13.532 0-24.5-10.97-24.5-24.5 0-13.531 10.968-24.5 24.5-24.5 13.53 0 24.5 10.969 24.5 24.5"/>
            <g fill="#FFF">
                <path d="M201.815 76.243c0-4.088-4.262-7.412-9.5-7.412s-9.5 3.324-9.5 7.412c0 1.767.788 3.44 2.232 4.776l-2.04 1.689a.55.55 0 0 0-.165.59c.07.213.26.356.473.356h9c5.238 0 9.5-3.324 9.5-7.411"/>
                <path d="M204.582 84.195c1.445-1.334 2.233-3.01 2.233-4.776 0-2.26-1.297-4.368-3.561-5.78a.477.477 0 0 0-.564.04.549.549 0 0 0-.168.57c.195.673.293 1.343.293 1.993 0 4.656-4.517 8.372-10.285 8.462a.507.507 0 0 0-.481.42.54.54 0 0 0 .281.592c1.51.729 3.233 1.114 4.985 1.114h9a.502.502 0 0 0 .473-.356.55.55 0 0 0-.165-.59l-2.041-1.689z"/>
            </g>
        </g>
    </g>
</svg>
