<?xml version="1.0" encoding="utf-8"?>
<!-- Generator: Adobe Illustrator 17.0.0, SVG Export Plug-In . SVG Version: 6.00 Build 0)  -->
<!DOCTYPE svg PUBLIC "-//W3C//DTD SVG 1.1//EN" "http://www.w3.org/Graphics/SVG/1.1/DTD/svg11.dtd">
<svg version="1.1" id="Layer_1" xmlns="http://www.w3.org/2000/svg" xmlns:xlink="http://www.w3.org/1999/xlink" x="0px" y="0px"
	 width="730px" height="360px" viewBox="0 0 730 360" enable-background="new 0 0 730 360" xml:space="preserve">
<g>
	<g>
		<g>
			<g>
				<path fill="#015B25" d="M492.341,216.582V338.7h23.143V216.582c0,5.58-5.181,0.399-11.571,0.399
					S492.341,222.161,492.341,216.582z"/>
				<path fill="#015B25" d="M600.471,216.582V338.7h23.143V216.582c0,5.58-5.181,0.399-11.571,0.399
					S600.471,222.161,600.471,216.582z"/>
				<path fill="#015B25" d="M600.471,216.582v110.547c0,18.361,5.181,23.542,11.571,23.542c6.391,0,11.571-5.181,11.571-23.542
					V216.582c0,5.58-5.181,0.399-11.571,0.399C605.652,216.981,600.471,222.161,600.471,216.582z"/>
				<path fill="#56BA22" d="M504.114,145.599c-17.742,0-32.396-13.272-34.846-31.557c-0.807-6.024-4.509-17.709-7.776-28.018
					c-3.959-12.496-7.699-36.269-9.223-46.009c-1.493-9.545,1.31-19.295,7.689-26.75c6.762-7.902,16.629-12.433,27.073-12.433
					h138.791c10.443,0,20.311,4.532,27.073,12.433c6.38,7.455,9.182,17.204,7.689,26.748c-1.524,9.741-5.264,33.515-9.223,46.009
					c-3.267,10.309-6.969,21.995-7.776,28.018c-2.45,18.286-17.104,31.557-34.846,31.557H504.114z"/>
				<path fill="#1B9B05" d="M643.458,139.243H469.396c-10.889,0-19.716,8.828-19.716,19.717v8.206v53.323v33.344
					c0,10.89,8.827,19.717,19.717,19.717h174.062c10.889,0,19.716-8.828,19.716-19.717v-33.344v-53.323v-8.206
					C663.175,148.07,654.348,139.243,643.458,139.243z"/>
			</g>
		</g>
		<g>
			<path fill="#D0EB51" d="M558.468,173.322h-7.529c0.011-0.114,0.035-0.223,0.035-0.34v-41.88c0-2.095-1.699-3.793-3.794-3.793
				c-2.095,0-3.793,1.698-3.793,3.793v41.88c0,0.116,0.024,0.226,0.034,0.34h-7.529c-2.095,0-3.793,1.698-3.793,3.793v2.73h30.163
				v-2.73C562.262,175.021,560.563,173.322,558.468,173.322z"/>
			<rect x="530.088" y="73.104" fill="#94CE28" width="34.185" height="29.844"/>
			<path fill="#7F2C28" d="M530.088,102.949v27.113c0,9.44,7.652,17.092,17.092,17.092s17.092-7.652,17.092-17.092v-27.113H530.088z
				"/>
		</g>
		<g>
			<path fill="#D0EB51" d="M506.796,173.322h-7.529c0.01-0.114,0.034-0.223,0.034-0.34v-41.88c0-2.095-1.698-3.793-3.793-3.793
				s-3.794,1.698-3.794,3.793v41.88c0,0.116,0.024,0.226,0.035,0.34h-7.529c-2.095,0-3.793,1.698-3.793,3.793v2.73h30.163v-2.73
				C510.59,175.021,508.891,173.322,506.796,173.322z"/>
			<rect x="478.416" y="73.104" fill="#94CE28" width="34.185" height="17.276"/>
			<path fill="#D13D3D" d="M478.416,90.381v39.681c0,9.44,7.652,17.092,17.092,17.092s17.092-7.652,17.092-17.092V90.381H478.416z"
				/>
		</g>
		<path fill="#94CE28" d="M718.429,179.845H394.426c-6.391,0-11.571,5.181-11.571,11.571c0,6.391,5.181,11.571,11.571,11.571
			h324.003c6.391,0,11.571-5.181,11.571-11.571C730,185.026,724.819,179.845,718.429,179.845z"/>
		<path fill="#1B9B05" d="M642.95,336.857H469.905c-6.391,0-11.571,5.181-11.571,11.571c0,6.391,5.181,11.571,11.571,11.571H642.95
			c6.391,0,11.571-5.181,11.571-11.571C654.522,342.038,649.341,336.857,642.95,336.857z"/>
		<polygon fill="#015B25" points="558.73,335.844 542.833,336.857 542.833,202.988 558.73,201.975 		"/>
		<line fill="#015B25" x1="572.325" y1="336.857" x2="545.136" y2="336.857"/>
	</g>
	<g>
		<g>
			<g>
				<path fill="#015B25" d="M109.487,216.582V338.7h23.143V216.582c0,5.58-5.181,0.399-11.571,0.399
					S109.487,222.161,109.487,216.582z"/>
				<path fill="#015B25" d="M217.617,216.582V338.7h23.143V216.582c0,5.58-5.181,0.399-11.571,0.399
					S217.617,222.161,217.617,216.582z"/>
				<path fill="#015B25" d="M217.617,216.582v110.547c0,18.361,5.181,23.542,11.571,23.542s11.571-5.181,11.571-23.542V216.582
					c0,5.58-5.181,0.399-11.571,0.399S217.617,222.161,217.617,216.582z"/>
				<path fill="#56BA22" d="M121.26,145.599c-17.742,0-32.396-13.272-34.846-31.557c-0.807-6.024-4.509-17.709-7.776-28.018
					c-3.959-12.496-7.699-36.269-9.223-46.009c-1.493-9.545,1.31-19.295,7.689-26.75c6.762-7.902,16.629-12.433,27.073-12.433
					h138.791c10.443,0,20.311,4.532,27.073,12.433c6.38,7.455,9.182,17.204,7.689,26.748c-1.524,9.741-5.264,33.515-9.223,46.009
					c-3.267,10.309-6.969,21.995-7.776,28.018c-2.45,18.286-17.104,31.557-34.846,31.557H121.26z"/>
				<path fill="#1B9B05" d="M260.604,139.243H86.541c-10.889,0-19.716,8.828-19.716,19.717v8.206v53.323v33.344
					c0,10.89,8.827,19.717,19.717,19.717h174.063c10.889,0,19.716-8.828,19.716-19.717v-33.344v-53.323v-8.206
					C280.321,148.07,271.493,139.243,260.604,139.243z"/>
			</g>
		</g>
		<path fill="#94CE28" d="M335.574,179.845H11.571C5.181,179.845,0,185.026,0,191.417c0,6.391,5.181,11.571,11.571,11.571h324.003
			c6.391,0,11.571-5.181,11.571-11.571C347.146,185.026,341.965,179.845,335.574,179.845z"/>
		<path fill="#1B9B05" d="M260.096,336.857H87.05c-6.391,0-11.571,5.181-11.571,11.571c0,6.391,5.181,11.571,11.571,11.571h173.046
			c6.391,0,11.571-5.181,11.571-11.571C271.667,342.038,266.487,336.857,260.096,336.857z"/>
		<rect x="159.978" y="202.988" fill="#015B25" width="27.189" height="133.869"/>
		<line fill="#015B25" x1="189.47" y1="336.857" x2="162.281" y2="336.857"/>
		<g>
			<path fill="#D0EB51" d="M234.052,153.724c-2.049-1.51-5.588-0.741-8.235-1.792c-2.399-0.952-4.359-3.986-7.126-4.48
				c-2.567-0.458-5.477,1.673-8.264,1.673c-2.787,0-5.698-2.131-8.265-1.673c-2.767,0.494-4.727,3.527-7.126,4.48
				c-2.647,1.051-6.186,0.281-8.234,1.791c-2.318,1.708-2.474,5.272-3.81,7.427c-1.465,2.362-4.487,4.316-4.487,7.025h63.843
				c0-2.709-3.021-4.662-4.486-7.023C236.527,158.997,236.37,155.433,234.052,153.724z"/>
		</g>
		<path fill="#FFFFFF" d="M245.007,156.505h-52.593h-7.519h-7.529c-2.095,0-3.793,1.698-3.793,3.793
			c0,19.618,15.928,19.547,15.928,19.547h43.371c0,0,15.928,0.071,15.928-19.547C248.8,158.204,247.102,156.505,245.007,156.505z"/>
		<g>
			<path fill="#D0EB51" d="M630.007,153.724c-2.049-1.51-5.588-0.741-8.235-1.792c-2.399-0.952-4.359-3.986-7.126-4.48
				c-2.567-0.458-5.477,1.673-8.264,1.673c-2.787,0-5.698-2.131-8.265-1.673c-2.767,0.494-4.727,3.527-7.126,4.48
				c-2.647,1.051-6.186,0.281-8.234,1.791c-2.318,1.708-2.474,5.272-3.81,7.427c-1.465,2.362-4.487,4.316-4.487,7.025h63.843
				c0-2.709-3.021-4.662-4.486-7.023C632.481,158.997,632.325,155.433,630.007,153.724z"/>
		</g>
		<path fill="#FFFFFF" d="M640.962,156.505h-52.593h-7.519h-7.529c-2.095,0-3.793,1.698-3.793,3.793
			c0,19.618,15.928,19.547,15.928,19.547h43.371c0,0,15.928,0.071,15.928-19.547C644.755,158.204,643.056,156.505,640.962,156.505z"
			/>
		<g>
			<g>
				<path fill="#7F2C28" d="M115.718,122.55v45.04c0,6.769,5.487,12.255,12.255,12.255h15.741c6.768,0,12.255-5.487,12.255-12.255
					v-45.04H115.718z"/>
				<g>
					<polygon fill="#94CE28" points="127.039,86.077 118.352,86.077 115.718,86.077 115.718,122.551 124.406,122.551 
						133.093,122.551 155.97,122.551 155.97,86.077 					"/>
					<path fill="#D13D3D" d="M139.113,143.213c0.404,1.701,1.922,2.847,3.598,2.847c0.283,0,0.571-0.033,0.858-0.101
						c1.989-0.472,3.218-2.467,2.746-4.456l-4.498-18.952h-7.608L139.113,143.213z"/>
					<path fill="#F1FF8D" d="M128.155,65.646c-0.267-1.125-1.045-2.06-2.102-2.529c-1.056-0.469-2.272-0.416-3.286,0.143L111.205,70
						c-1.79,0.987-2.442,3.237-1.455,5.028c0.987,1.791,3.239,2.441,5.028,1.455l7.298-4.391l6.078,24.95h7.608L128.155,65.646z"/>
					<polygon fill="#D0EB51" points="125.483,86.077 134.209,122.551 141.817,122.551 133.105,86.077 					"/>
				</g>
			</g>
		</g>
	</g>
</g>
</svg>
