<?xml version="1.0" encoding="utf-8"?>
<!-- Generator: Adobe Illustrator 17.0.0, SVG Export Plug-In . SVG Version: 6.00 Build 0)  -->
<!DOCTYPE svg PUBLIC "-//W3C//DTD SVG 1.1//EN" "http://www.w3.org/Graphics/SVG/1.1/DTD/svg11.dtd">
<svg version="1.1" xmlns="http://www.w3.org/2000/svg" xmlns:xlink="http://www.w3.org/1999/xlink" x="0px" y="0px" width="540px"
	 height="270px" viewBox="0 0 540 270" enable-background="new 0 0 540 270" xml:space="preserve">
<g id="Layer_2" display="none">
	<rect display="inline" fill="#D9E1E5" width="540" height="270"/>
</g>
<g id="Layer_1">
	<g>
		<path fill="#56BA22" d="M445,224.564C445,236.955,434.955,247,422.564,247H117.436C105.045,247,95,236.955,95,224.564V54.051
			c0-12.391,10.045-22.436,22.436-22.436h305.128C434.955,31.615,445,41.66,445,54.051V224.564z"/>
		<rect x="133.685" fill="#FFFFFF" width="29.528" height="31.615"/>
		<rect x="376.787" fill="#FFFFFF" width="29.528" height="31.615"/>
		<circle fill="#015B25" cx="392.282" cy="83.452" r="32.264"/>
		<path fill="#015B25" d="M347.801,226.44c0,3.179-2.577,5.756-5.756,5.756h-224.68c-3.179,0-5.756-2.577-5.756-5.756V69.444
			c0-3.179,2.577-5.756,5.756-5.756h224.68c3.179,0,5.756,2.577,5.756,5.756V226.44z"/>
		<g>
			<path fill="#FFFFFF" d="M385.921,148.588L385.921,148.588v-0.004v-19.941c0-1.548-1.255-2.804-2.804-2.804
				c-1.548,0-2.804,1.255-2.804,2.804v11.818h-4.106v-11.818c0-1.548-1.255-2.804-2.804-2.804c-1.548,0-2.804,1.255-2.804,2.804
				v11.818h-4.106v-11.818c0-1.548-1.255-2.804-2.804-2.804c-1.548,0-2.804,1.255-2.804,2.804v19.941v0.003v0.001v1.281
				c0,0.399,0.086,0.777,0.236,1.12c0.575,2.957,2.19,5.539,4.451,7.355v66.523c0,4.325,3.506,7.831,7.831,7.831
				s7.831-3.506,7.831-7.831v-66.523c2.26-1.816,3.875-4.398,4.451-7.355c0.15-0.343,0.236-0.721,0.236-1.12V148.588z"/>
			<path fill="#FFFFFF" d="M407.443,123.719h-0.063c-4.325,0-7.831,3.506-7.831,7.831v93.317c0,4.325,3.506,7.831,7.831,7.831
				s7.831-3.506,7.831-7.831V186.2c4.01-0.915,7.006-4.497,7.006-8.784l-5.756-44.679
				C416.461,127.756,412.424,123.719,407.443,123.719z"/>
		</g>
		<path fill="#94CE28" d="M333.986,211.254c0,3.797-3.078,6.875-6.875,6.875h-90.97c-3.797,0-6.875-3.078-6.875-6.875v-60.068
			c0-3.797,3.078-6.875,6.875-6.875h90.97c3.797,0,6.875,3.078,6.875,6.875V211.254z"/>
		<path fill="#56BA22" d="M240.266,211.853c-2.278,0-4.125-1.846-4.125-4.125V155.91c0-2.279,1.847-4.125,4.125-4.125h82.72
			c2.278,0,4.125,1.846,4.125,4.125v51.818c0,2.279-1.847,4.125-4.125,4.125H240.266z"/>
		<g>
			<path fill="#94CE28" d="M215.755,121.306c0,3.621-2.936,6.557-6.557,6.557h-76.266c-3.621,0-6.557-2.936-6.557-6.557V84.215
				c0-3.621,2.936-6.557,6.557-6.557h76.266c3.621,0,6.557,2.936,6.557,6.557V121.306z"/>
			<path fill="#56BA22" d="M137.375,120.987c-2.278,0-4.125-1.846-4.125-4.125V88.658c0-2.279,1.847-4.125,4.125-4.125h67.379
				c2.278,0,4.125,1.846,4.125,4.125v28.204c0,2.279-1.847,4.125-4.125,4.125H137.375z"/>
		</g>
		<g>
			<path fill="#94CE28" d="M215.754,211.578c0,3.621-2.936,6.557-6.557,6.557h-76.266c-3.621,0-6.557-2.936-6.557-6.557v-37.091
				c0-3.621,2.936-6.557,6.557-6.557h76.266c3.621,0,6.557,2.936,6.557,6.557V211.578z"/>
			<path fill="#56BA22" d="M137.375,211.259c-2.278,0-4.125-1.846-4.125-4.125V178.93c0-2.279,1.847-4.125,4.125-4.125h67.379
				c2.278,0,4.125,1.846,4.125,4.125v28.204c0,2.279-1.847,4.125-4.125,4.125H137.375z"/>
		</g>
		<path fill="#D0EB51" d="M186.165,151.186c0,3.797-3.078,6.875-6.875,6.875h-44.346c-3.797,0-6.875-3.078-6.875-6.875v-5.302
			c0-3.797,3.078-6.875,6.875-6.875h44.346c3.797,0,6.875,3.078,6.875,6.875V151.186z"/>
		<rect x="145.256" y="139.009" fill="#FFFFFF" width="23.72" height="19.052"/>
		<path fill="#F1FF8D" d="M306.036,184.893c-0.01,0,0.398-0.003,0.388-0.003h11.969c1.587,0,2.873-1.286,2.873-2.873
			c0-1.587-1.286-2.873-2.873-2.873c0.218,0-0.204-0.029,0-0.075h-6.752c-1.587,0-2.874-1.286-2.874-2.873s1.287-2.873,2.874-2.873
			h2.732c1.282-0.288,2.242-1.429,2.242-2.799c0-1.587-1.286-2.874-2.873-2.874c0.01,0-7.716-0.003-7.706-0.003
			c-1.573-0.016-2.845-1.294-2.845-2.87c0-1.578,1.272-2.855,2.845-2.871c-0.01,0,7.273-0.003,7.263-0.003
			c1.587,0,2.874-1.286,2.874-2.873c0-1.587-1.286-2.873-2.874-2.873h-24.299c-1.587,0-2.873,1.286-2.873,2.873
			c0,1.587,1.287,2.873,2.873,2.873h1.121c1.587,0,2.873,1.287,2.873,2.874c0,1.587-1.286,2.873-2.873,2.873h-6.784
			c-1.586,0.001-2.872,1.287-2.872,2.874c0,1.369,0.96,2.51,2.243,2.799h8.683c1.587,0,2.874,1.286,2.874,2.873
			s-1.287,2.873-2.874,2.873h-1.807c0.203,0.046-11.014,0.075-10.797,0.075c-1.587,0-2.874,1.287-2.874,2.873
			c0,1.587,1.287,2.873,2.874,2.873h6.387h0h1.121c1.587,0,2.873,1.286,2.873,2.873s-1.286,2.873-2.873,2.873h-3.725
			c-1.586,0.001-2.872,1.287-2.872,2.873c0,1.37,0.96,2.51,2.243,2.799h7.145c1.587,0,2.874,1.287,2.874,2.873
			c0,1.587-1.287,2.873-2.874,2.873h-5.694c0.203,0.046-1.804,0.075-1.587,0.075c-1.587,0-2.874,1.287-2.874,2.874
			c0,1.587,1.287,2.873,2.874,2.873h26.437c1.587,0,2.873-1.286,2.873-2.873c0-1.587-1.286-2.874-2.873-2.874
			c0.218,0,0.427-0.029,0.631-0.075h-0.574c-1.587,0-2.874-1.286-2.874-2.873c0-1.587,1.287-2.873,2.874-2.873h5.541
			c1.282-0.288,2.242-1.429,2.242-2.799c0-1.587-1.286-2.873-2.873-2.873c0.01,0-7.182-0.003-7.172-0.003
			c-1.573-0.016-2.845-1.294-2.845-2.871S304.462,184.908,306.036,184.893z"/>
		<path fill="#EF5854" d="M270.443,202.429c0,3.009-2.439,5.448-5.448,5.448h-18.013c-3.009,0-5.448-2.439-5.448-5.448v-41.006
			c0-3.009,2.439-5.448,5.448-5.448h18.013c3.009,0,5.448,2.439,5.448,5.448V202.429z"/>
		<circle fill="#127045" cx="144.409" cy="185.965" r="7.035"/>
		<circle fill="#015B25" cx="144.409" cy="200.067" r="7.035"/>
		<circle fill="#127045" cx="157.737" cy="200.067" r="7.035"/>
		<circle fill="#015B25" cx="157.737" cy="185.998" r="7.035"/>
		<circle fill="#127045" cx="197.719" cy="185.965" r="7.035"/>
		<circle fill="#015B25" cx="197.719" cy="200.067" r="7.035"/>
		<circle fill="#127045" cx="171.065" cy="185.965" r="7.035"/>
		<circle fill="#015B25" cx="171.065" cy="200.067" r="7.035"/>
		<circle fill="#015B25" cx="184.392" cy="185.965" r="7.035"/>
		<circle fill="#127045" cx="184.392" cy="200.067" r="7.035"/>
		<rect x="195.103" y="139.009" fill="#FFFFFF" width="20.652" height="19.052"/>
		<g>
			<path fill="#D13D3D" d="M191.012,102.76c0,0-31.524,13.57-39.018,13.57c0,0-3.059-6.076-3.059-13.57
				c0-7.495,3.059-13.57,3.059-13.57C159.488,89.19,191.012,102.76,191.012,102.76z"/>
			<g>
				<path fill="#FFFFFF" d="M156.736,117.593c-0.137-0.274-3.358-6.766-3.358-14.834c0-8.067,3.221-14.558,3.358-14.833
					c0.145-0.287,0.346-0.529,0.571-0.745c-2.271-0.503-4.115-0.799-5.314-0.799c-1.061,0-2.03,0.597-2.507,1.544
					c-0.137,0.274-3.358,6.766-3.358,14.833c0,8.069,3.221,14.56,3.358,14.834c0.477,0.946,1.446,1.544,2.507,1.544
					c1.199,0,3.043-0.296,5.314-0.799C157.083,118.122,156.881,117.881,156.736,117.593z"/>
				<path fill="#D13D3D" d="M193.818,102.759c0-1.186-0.745-2.242-1.86-2.642c-3.317-1.188-22.23-10.183-34.651-12.936
					c-0.224,0.216-0.426,0.458-0.571,0.745c-0.137,0.274-3.358,6.766-3.358,14.833c0,8.069,3.221,14.56,3.358,14.834
					c0.145,0.287,0.346,0.529,0.571,0.745c12.42-2.753,31.334-11.749,34.651-12.937
					C193.073,105.001,193.818,103.945,193.818,102.759z"/>
			</g>
		</g>
		<path fill="#127045" d="M307.815,81.64v0.102c-2.293-1.806-5.179-2.893-8.324-2.893h-46.703c-3.145,0-6.031,1.086-8.324,2.893
			V81.64h-9.993v43.447h9.993v-0.116c2.293,1.806,5.179,2.892,8.324,2.892h46.703c3.145,0,6.031-1.086,8.324-2.892v0.116h9.993
			V81.64H307.815z"/>
		<path fill="#D0EB51" d="M303.909,108.984c0,6.629-5.374,12.003-12.003,12.003h-31.531c-6.629,0-12.003-5.374-12.003-12.003V97.727
			c0-6.629,5.374-12.003,12.003-12.003h31.531c6.629,0,12.003,5.374,12.003,12.003V108.984z"/>
		<path fill="#F1FF8D" d="M279.899,111.299c0,2.076-1.683,3.759-3.759,3.759l0,0c-2.076,0-3.759-1.683-3.759-3.759V95.413
			c0-2.076,1.683-3.759,3.759-3.759l0,0c2.076,0,3.759,1.683,3.759,3.759V111.299z"/>
		<path fill="#F1FF8D" d="M298.119,111.299c0,2.076-1.683,3.759-3.759,3.759l0,0c-2.076,0-3.759-1.683-3.759-3.759V95.413
			c0-2.076,1.683-3.759,3.759-3.759l0,0c2.076,0,3.759,1.683,3.759,3.759V111.299z"/>
		<path fill="#F1FF8D" d="M261.68,111.299c0,2.076-1.683,3.759-3.759,3.759l0,0c-2.076,0-3.759-1.683-3.759-3.759V95.413
			c0-2.076,1.683-3.759,3.759-3.759l0,0c2.076,0,3.759,1.683,3.759,3.759V111.299z"/>
		<path fill="#F1FF8D" d="M279.899,111.299c0,2.076-1.683,3.759-3.759,3.759l0,0c-2.076,0-3.759-1.683-3.759-3.759V95.413
			c0-2.076,1.683-3.759,3.759-3.759l0,0c2.076,0,3.759,1.683,3.759,3.759V111.299z"/>
		<g>
			<path fill="#FC7575" d="M266.138,166.303c0,1.652-1.339,2.991-2.991,2.991h-14.317c-1.652,0-2.991-1.339-2.991-2.991l0,0
				c0-1.652,1.339-2.991,2.991-2.991h14.317C264.798,163.312,266.138,164.651,266.138,166.303L266.138,166.303z"/>
			<path fill="#FC7575" d="M266.138,176.718c0,1.652-1.339,2.991-2.991,2.991h-14.317c-1.652,0-2.991-1.339-2.991-2.991l0,0
				c0-1.652,1.339-2.991,2.991-2.991h14.317C264.798,173.727,266.138,175.067,266.138,176.718L266.138,176.718z"/>
			<path fill="#FC7575" d="M266.138,197.55c0,1.652-1.339,2.991-2.991,2.991h-14.317c-1.652,0-2.991-1.339-2.991-2.991l0,0
				c0-1.652,1.339-2.991,2.991-2.991h14.317C264.798,194.559,266.138,195.898,266.138,197.55L266.138,197.55z"/>
			<path fill="#FC7575" d="M266.138,187.134c0,1.652-1.339,2.991-2.991,2.991h-14.317c-1.652,0-2.991-1.339-2.991-2.991l0,0
				c0-1.652,1.339-2.991,2.991-2.991h14.317C264.798,184.143,266.138,185.482,266.138,187.134L266.138,187.134z"/>
		</g>
		<circle fill="#FC7575" cx="157.116" cy="148.535" r="7.44"/>
		<circle fill="#1B9B05" cx="392.282" cy="83.452" r="23.42"/>
	</g>
</g>
</svg>
