<?xml version="1.0" encoding="utf-8"?>
<!-- Generator: Adobe Illustrator 17.0.0, SVG Export Plug-In . SVG Version: 6.00 Build 0)  -->
<!DOCTYPE svg PUBLIC "-//W3C//DTD SVG 1.1//EN" "http://www.w3.org/Graphics/SVG/1.1/DTD/svg11.dtd">
<svg version="1.1" id="Layer_1" xmlns="http://www.w3.org/2000/svg" xmlns:xlink="http://www.w3.org/1999/xlink" x="0px" y="0px"
	 width="730px" height="360px" viewBox="0 0 730 360" enable-background="new 0 0 730 360" xml:space="preserve">
<g>
	<g>
		<rect x="36.15" y="289.124" fill="#015B25" width="195.133" height="70.876"/>
		<rect x="267.433" y="289.124" fill="#015B25" width="195.133" height="70.876"/>
		<rect x="498.717" y="289.124" fill="#015B25" width="195.133" height="70.876"/>
		<g>
			<g>
				<g>
					<g>
						<g>
							<g>
								<g>
									<g>
										<g>
											<g>
												<path fill="#56BA22" d="M178.801,7.126H88.632c-28.971,0-52.459,23.474-52.482,52.441v0.083v229.475h195.133V59.608
													C231.283,30.623,207.785,7.126,178.801,7.126z"/>
											</g>
										</g>
									</g>
								</g>
							</g>
						</g>
					</g>
				</g>
				<path fill="#1B9B05" d="M197.223,132.69c0,3.453-2.8,6.253-6.253,6.253H75.777c-3.453,0-6.253-2.8-6.253-6.253l0,0
					c0-3.453,2.8-6.253,6.253-6.253H190.97C194.424,126.437,197.223,129.237,197.223,132.69L197.223,132.69z"/>
				<path fill="#1B9B05" d="M197.223,185.425c0,3.453-2.8,6.253-6.253,6.253H75.777c-3.453,0-6.253-2.8-6.253-6.253l0,0
					c0-3.453,2.8-6.253,6.253-6.253H190.97C194.424,179.172,197.223,181.972,197.223,185.425L197.223,185.425z"/>
				<g>
					<path fill="#94CE28" d="M183.051,7.48v69.896h2.741c16.549,0,29.964-3.373,29.964-19.922V47.46
						C212.344,29.26,199.793,14.289,183.051,7.48z"/>
					<path fill="#94CE28" d="M51.678,57.454c0,16.549,13.415,19.922,29.964,19.922h2.741V7.865
						C65.152,16.109,51.678,35.206,51.678,57.454z"/>
					<polygon fill="#F1FF8D" points="118.566,76.24 86.42,76.24 86.42,76.24 181.013,76.24 181.013,76.24 149.768,76.24 					"/>
					<path fill="#F1FF8D" d="M162.76,3.52h-57.148c-7.539,0-14.713,1.552-21.23,4.345v69.511h33.531h32.545h32.592V7.48
						C176.787,4.933,169.94,3.52,162.76,3.52z"/>
				</g>
				<rect x="84.382" y="77.377" fill="#D0EB51" width="98.668" height="30.889"/>
				<rect x="231.283" y="218.214" fill="#015B25" width="36.15" height="141.786"/>
				<rect y="218.214" fill="#94CE28" width="36.15" height="141.786"/>
				<g>
					<path fill="#D0EB51" d="M261.022,180.54h-6.37h-23.369v15.616l0,0v22.059h23.369h12.781V186.95
						C267.433,183.41,264.563,180.54,261.022,180.54z"/>
					<path fill="#D0EB51" d="M6.411,180.54C2.87,180.54,0,183.41,0,186.95v31.264h12.781H36.15v-22.059l0,0V180.54H12.781H6.411z"/>
				</g>
			</g>
			<g>
				<g>
					<g>
						<g>
							<g>
								<g>
									<g>
										<g>
											<g>
												<path fill="#44A1E0" d="M257.391,41.186c0,0.009,0.001,0.018,0.001,0.018v-0.045
													C257.392,41.168,257.391,41.177,257.391,41.186z"/>
												<path fill="#56BA22" d="M410.084,7.126h-90.169c-28.971,0-52.459,23.474-52.482,52.441v0.083v226.945h195.133V59.608
													C462.567,30.623,439.069,7.126,410.084,7.126z"/>
											</g>
										</g>
									</g>
								</g>
							</g>
						</g>
					</g>
				</g>
				<path fill="#1B9B05" d="M428.506,132.69c0,3.453-2.8,6.253-6.253,6.253H307.061c-3.453,0-6.253-2.8-6.253-6.253l0,0
					c0-3.453,2.8-6.253,6.253-6.253h115.193C425.707,126.437,428.506,129.237,428.506,132.69L428.506,132.69z"/>
				<path fill="#1B9B05" d="M428.506,185.425c0,3.453-2.8,6.253-6.253,6.253H307.061c-3.453,0-6.253-2.8-6.253-6.253l0,0
					c0-3.453,2.8-6.253,6.253-6.253h115.193C425.707,179.172,428.506,181.972,428.506,185.425L428.506,185.425z"/>
				<g>
					<path fill="#94CE28" d="M414.334,7.48v69.896h2.741c16.549,0,29.964-3.373,29.964-19.922V47.46
						C443.627,29.26,431.076,14.289,414.334,7.48z"/>
					<path fill="#94CE28" d="M282.961,57.454c0,16.549,13.415,19.922,29.964,19.922h2.741V7.865
						C296.435,16.109,282.961,35.206,282.961,57.454z"/>
					<polygon fill="#F1FF8D" points="349.85,76.24 317.703,76.24 317.703,76.24 412.297,76.24 412.297,76.24 381.051,76.24 					"/>
					<path fill="#F1FF8D" d="M394.043,3.52h-57.148c-7.539,0-14.713,1.552-21.23,4.345v69.511h33.531h32.545h32.592V7.48
						C408.07,4.933,401.223,3.52,394.043,3.52z"/>
				</g>
				<rect x="315.666" y="77.377" fill="#D0EB51" width="98.668" height="30.889"/>
				<rect x="462.567" y="218.214" fill="#015B25" width="36.15" height="141.786"/>
				<rect x="231.283" y="218.214" fill="#94CE28" width="36.15" height="141.786"/>
				<g>
					<path fill="#D0EB51" d="M492.306,180.54h-6.37h-23.369v15.616l0,0v22.059h23.369h12.781V186.95
						C498.717,183.41,495.847,180.54,492.306,180.54z"/>
					<path fill="#D0EB51" d="M237.694,180.54c-3.541,0-6.411,2.87-6.411,6.411v31.264h12.781h23.369v-22.059l0,0V180.54h-23.369
						H237.694z"/>
				</g>
			</g>
			<g>
				<g>
					<g>
						<g>
							<g>
								<g>
									<g>
										<g>
											<g>
												<path fill="#44A1E0" d="M488.674,41.186c0,0.009,0.001,0.018,0.001,0.018v-0.045
													C488.675,41.168,488.674,41.177,488.674,41.186z"/>
												<path fill="#56BA22" d="M641.367,7.126h-90.169c-28.971,0-52.459,23.474-52.482,52.441v0.083v229.475H693.85V59.608
													C693.85,30.623,670.352,7.126,641.367,7.126z"/>
											</g>
										</g>
									</g>
								</g>
							</g>
						</g>
					</g>
				</g>
				<path fill="#1B9B05" d="M659.79,132.69c0,3.453-2.8,6.253-6.253,6.253H538.344c-3.453,0-6.253-2.8-6.253-6.253l0,0
					c0-3.453,2.8-6.253,6.253-6.253h115.193C656.99,126.437,659.79,129.237,659.79,132.69L659.79,132.69z"/>
				<path fill="#1B9B05" d="M659.79,185.425c0,3.453-2.8,6.253-6.253,6.253H538.344c-3.453,0-6.253-2.8-6.253-6.253l0,0
					c0-3.453,2.8-6.253,6.253-6.253h115.193C656.99,179.172,659.79,181.972,659.79,185.425L659.79,185.425z"/>
				<g>
					<path fill="#94CE28" d="M645.617,7.48v69.896h2.741c16.549,0,29.964-3.373,29.964-19.922V47.46
						C674.91,29.26,662.36,14.289,645.617,7.48z"/>
					<path fill="#94CE28" d="M514.244,57.454c0,16.549,13.415,19.922,29.964,19.922h2.741V7.865
						C527.718,16.109,514.244,35.206,514.244,57.454z"/>
					<polygon fill="#F1FF8D" points="581.133,76.24 548.986,76.24 548.986,76.24 643.58,76.24 643.58,76.24 612.334,76.24 					"/>
					<path fill="#F1FF8D" d="M625.327,3.52h-57.148c-7.539,0-14.714,1.552-21.23,4.345v69.511h33.531h32.545h32.592V7.48
						C639.353,4.933,632.507,3.52,625.327,3.52z"/>
				</g>
				<rect x="546.949" y="77.377" fill="#D0EB51" width="98.668" height="30.889"/>
				<rect x="693.85" y="218.214" fill="#94CE28" width="36.15" height="141.786"/>
				<rect x="462.567" y="218.214" fill="#94CE28" width="36.15" height="141.786"/>
				<g>
					<path fill="#D0EB51" d="M723.589,180.54h-6.37H693.85v15.616l0,0v22.059h23.369H730V186.95
						C730,183.41,727.13,180.54,723.589,180.54z"/>
					<path fill="#D0EB51" d="M468.978,180.54c-3.541,0-6.411,2.87-6.411,6.411v31.264h12.781h23.369v-22.059l0,0V180.54h-23.369
						H468.978z"/>
				</g>
				<g>
					<path fill="#1B9B05" d="M36.15,291.393c0-8.212,6.657-14.869,14.869-14.869h165.396c8.212,0,14.869,6.657,14.869,14.869
						v-61.061H36.15V291.393z"/>
					<path fill="#56BA22" d="M216.415,265.899H51.019c-8.212,0-14.869,6.657-14.869,14.869v10.604V360h195.133v-68.629v-10.604
						C231.283,272.556,224.626,265.899,216.415,265.899z"/>
					<path fill="#1B9B05" d="M267.433,291.393c0-8.212,6.657-14.869,14.869-14.869h165.396c8.212,0,14.869,6.657,14.869,14.869
						v-61.061H267.433V291.393z"/>
					<path fill="#56BA22" d="M447.698,265.899H282.302c-8.212,0-14.869,6.657-14.869,14.869v10.604c0,8.212,0,68.629,0,68.629
						h195.133c0,0,0-60.417,0-68.629v-10.604C462.566,272.556,455.91,265.899,447.698,265.899z"/>
					<path fill="#1B9B05" d="M498.717,230.333v61.061c0-8.212,6.657-14.869,14.869-14.869h165.396
						c8.212,0,14.869,6.657,14.869,14.869v-61.061L498.717,230.333L498.717,230.333z"/>
					<path fill="#56BA22" d="M678.981,265.899H513.585c-8.212,0-14.869,6.657-14.869,14.869v10.604c0,14.869,0,68.629,0,68.629
						H693.85c0,0,0-60.417,0-68.629v-10.604C693.85,272.556,687.193,265.899,678.981,265.899z"/>
				</g>
			</g>
			<g>
				<path fill="#FFFFFF" d="M133.717,250.153c-2.326,0-4.546-0.971-6.127-2.675c-0.45-0.487-11.156-12.074-22.023-26.801
					c-15.519-21.032-23.062-36.994-23.062-48.796c0-28.24,22.973-51.213,51.212-51.213c28.238,0,51.212,22.973,51.212,51.213
					c0,11.802-7.543,27.764-23.062,48.796c-10.867,14.727-21.573,26.315-22.023,26.801
					C138.263,249.182,136.043,250.153,133.717,250.153z"/>
				<circle fill="#EF5854" cx="134.197" cy="171.88" r="36.291"/>
				<g>
					<path fill="#FFFFFF" d="M111.594,178.105l13.394,13.394c2.507,2.507,6.571,2.506,9.077,0l21.774-21.774
						c2.506-2.506,2.507-6.57,0-9.077c-2.507-2.507-6.571-2.506-9.077,0l-17.236,17.236l-8.856-8.856
						c-2.507-2.507-6.571-2.506-9.077,0S109.088,175.598,111.594,178.105z"/>
				</g>
			</g>
		</g>
		<rect y="260.863" fill="#015B25" width="36.15" height="99.137"/>
		<rect x="231.283" y="260.863" fill="#015B25" width="36.15" height="99.137"/>
		<rect x="462.566" y="260.863" fill="#015B25" width="36.15" height="99.137"/>
		<rect x="693.85" y="260.863" fill="#015B25" width="36.15" height="99.137"/>
	</g>
</g>
</svg>
