<?xml version="1.0" encoding="UTF-8"?>
<svg width="290px" height="290px" viewBox="0 0 290 290" version="1.1" xmlns="http://www.w3.org/2000/svg" xmlns:xlink="http://www.w3.org/1999/xlink">
    <!-- Generator: Sketch 43.1 (39012) - http://www.bohemiancoding.com/sketch -->
    <title>ilustração  pré-reserva</title>
    <desc>Created with Sketch.</desc>
    <defs>
        <polygon id="path-1" points="0 290 289.996 290 289.996 0 0 0"></polygon>
    </defs>
    <g id="PL-2.0&gt;-VOAR-EM-EXECUTIVA-2" stroke="none" stroke-width="1" fill="none" fill-rule="evenodd">
        <g transform="translate(-1034.000000, -631.000000)" id="lateral">
            <g transform="translate(-19.000000, 439.000000)">
                <g id="ilustração--pré-reserva" transform="translate(1053.000000, 192.000000)">
                    <path d="M276.495,26.188 L260.348,26.188 L13.499,26.188 C6.175,26.188 0,32.123 0,39.447 L0,220.919 C0,228.243 6.174,234.17 13.499,234.17 L52.419,234.17 L141.758,234.17 L276.494,234.17 C283.817,234.17 289.996,228.243 289.996,220.919 L289.996,39.447 C289.994,32.123 283.818,26.188 276.495,26.188 Z" id="Fill-1" fill="#D0EC51"></path>
                    <path d="M144.998,202.891 C149.671,202.891 153.46,206.68 153.46,211.353 C153.46,216.026 149.671,219.815 144.998,219.815 C140.325,219.815 136.536,216.026 136.536,211.353 C136.536,206.68 140.325,202.891 144.998,202.891" id="Fill-3" fill="#94CE28"></path>
                    <polygon id="Fill-5" fill="#FFFFFF" points="270.289 48.684 241.432 48.684 19.573 48.684 19.573 188.244 101.355 188.244 270.091 188.244 270.289 188.244 270.289 105.485 270.423 48.684"></polygon>
                    <polygon id="Fill-7" fill="#94CE28" points="154.537 234.171 145.038 234.171 114.162 234.171 114.162 274.396 114.162 280.754 145.038 280.754 175.834 280.754 175.834 234.171"></polygon>
                    <path d="M198.674,281.594 C198.674,286.236 194.912,290 190.269,290 L99.728,290 C95.086,290 91.322,286.236 91.322,281.594 L91.322,279.913 C91.322,275.271 95.086,271.507 99.728,271.507 L190.269,271.507 C194.911,271.507 198.674,275.271 198.674,279.913 L198.674,281.594 Z" id="Fill-9" fill="#D0EC51"></path>
                    <path d="M186.5959,91.136 L186.5959,68.377 C187.1349,67.91 187.4839,67.227 187.4839,66.458 C187.4839,64.758 185.9959,64.12 184.9339,63.908 L175.9779,63.908 C174.5689,63.908 173.4279,65.05 173.4279,66.458 C173.4279,67.227 173.7769,67.91 174.3159,68.377 L174.3159,91.135 C168.8949,93.505 165.1029,98.908 165.1029,105.202 L165.1029,156.753 L165.1029,173.084 L195.8089,173.084 L195.8089,156.753 L195.8089,105.203 C195.8089,98.908 192.0169,93.506 186.5959,91.136" id="Fill-11" fill="#127045"></path>
                    <path d="M135.6576,87.8549 C135.6576,82.8829 131.6266,78.8519 126.6546,78.8519 C121.6826,78.8519 117.6516,82.8829 117.6516,87.8549 C117.6516,90.2549 118.5966,92.4289 120.1266,94.0429 L133.1826,94.0429 C134.7136,92.4289 135.6576,90.2549 135.6576,87.8549" id="Fill-13" fill="#56BA22"></path>
                    <path d="M133.1831,94.0425 L120.1271,94.0425 C85.0871,97.3325 62.7381,126.8175 62.7381,162.7195 L62.7381,173.0845 L195.6481,173.0845 L195.6481,162.7195 C195.6481,126.8185 168.2241,97.3325 133.1831,94.0425" id="Fill-15" fill="#94CE28"></path>
                    <path d="M198.5429,162.7194 L126.6549,162.7194 L61.2799,162.7194 C58.4169,162.7194 56.0969,165.0404 56.0969,167.9024 C56.0969,170.7644 58.4169,173.0844 61.2799,173.0844 L126.6549,173.0844 L198.5429,173.0844 C201.4059,173.0844 203.7259,170.7644 203.7259,167.9024 C203.7259,165.0404 201.4059,162.7194 198.5429,162.7194" id="Fill-17" fill="#56BA22"></path>
                    <path d="M229.5352,168.596 L223.8752,168.596 C223.8832,168.51 223.9012,168.428 223.9012,168.341 L223.9012,136.855 C223.9012,135.28 222.6242,134.003 221.0492,134.003 C219.4742,134.003 218.1972,135.28 218.1972,136.855 L218.1972,168.341 C218.1972,168.428 218.2152,168.511 218.2232,168.596 L212.5632,168.596 C210.9882,168.596 209.7112,169.873 209.7112,171.447 L209.7112,173.5 L232.3872,173.5 L232.3872,171.447 C232.3872,169.873 231.1102,168.596 229.5352,168.596" id="Fill-19" fill="#94CE28"></path>
                    <mask id="mask-2" fill="white">
                        <use xlink:href="#path-1"></use>
                    </mask>
                    <g id="Clip-22"></g>
                    <polygon id="Fill-21" fill="#D0EC51" mask="url(#mask-2)" points="208.199 106.24 233.899 106.24 233.899 93.252 208.199 93.252"></polygon>
                    <path d="M208.1992,106.24 L208.1992,136.073 C208.1992,143.169 213.9522,148.923 221.0492,148.923 C228.1462,148.923 233.8992,143.169 233.8992,136.073 L233.8992,106.24 L208.1992,106.24 Z" id="Fill-23" fill="#D13D3D" mask="url(#mask-2)"></path>
                    <path d="M247.0597,0 C264.3397,0 278.3487,14.008 278.3487,31.289 C278.3487,48.569 264.3397,62.577 247.0597,62.577 C229.7797,62.577 215.7707,48.569 215.7707,31.289 C215.7707,14.008 229.7797,0 247.0597,0" id="Fill-24" fill="#EF5854" mask="url(#mask-2)"></path>
                    <path d="M231.1791,33.7368 L240.7941,43.3518 C242.5931,45.1508 245.5111,45.1508 247.3101,43.3518 L262.9401,27.7218 C264.7401,25.9218 264.7401,23.0048 262.9401,21.2058 C261.1411,19.4068 258.2241,19.4068 256.4241,21.2058 L244.0521,33.5778 L237.6951,27.2208 C235.8951,25.4218 232.9781,25.4218 231.1791,27.2208 C229.3801,29.0208 229.3801,31.9378 231.1791,33.7368" id="Fill-25" fill="#FFFFFF" mask="url(#mask-2)"></path>
                </g>
            </g>
        </g>
    </g>
</svg>